<mxfile host="app.diagrams.net" modified="2021-05-08T08:41:24.397Z" agent="5.0 (Macintosh; Intel Mac OS X 11_2_3) AppleWebKit/537.36 (KHTML, like Gecko) Chrome/89.0.4389.90 Safari/537.36" etag="eauuiZXeZEW7amXSodoA" version="14.6.11" type="github">
  <diagram id="kgpKYQtTHZ0yAKxKKP6v" name="Page-1">
    <mxGraphModel dx="2036" dy="538" grid="1" gridSize="10" guides="1" tooltips="1" connect="1" arrows="1" fold="1" page="1" pageScale="1" pageWidth="850" pageHeight="1100" math="0" shadow="0">
      <root>
        <mxCell id="0" />
        <mxCell id="1" parent="0" />
        <mxCell id="Sy8Tec7hPN1Ey56XSWz9-1" value="通用计算框架&lt;br&gt;Pingo" style="rounded=0;whiteSpace=wrap;html=1;" vertex="1" parent="1">
          <mxGeometry x="50" y="360" width="200" height="60" as="geometry" />
        </mxCell>
        <mxCell id="Sy8Tec7hPN1Ey56XSWz9-2" value="通用存储架构&lt;br&gt;AFS、ES、MySQL..." style="rounded=0;whiteSpace=wrap;html=1;" vertex="1" parent="1">
          <mxGeometry x="280" y="360" width="260" height="60" as="geometry" />
        </mxCell>
        <mxCell id="Sy8Tec7hPN1Ey56XSWz9-4" value="策略计算" style="rounded=0;whiteSpace=wrap;html=1;" vertex="1" parent="1">
          <mxGeometry x="50" y="270" width="370" height="60" as="geometry" />
        </mxCell>
        <mxCell id="Sy8Tec7hPN1Ey56XSWz9-5" value="业务服务" style="rounded=0;whiteSpace=wrap;html=1;" vertex="1" parent="1">
          <mxGeometry x="470" y="270" width="200" height="60" as="geometry" />
        </mxCell>
        <mxCell id="Sy8Tec7hPN1Ey56XSWz9-6" value="通用算子" style="rounded=0;whiteSpace=wrap;html=1;" vertex="1" parent="1">
          <mxGeometry x="560" y="360" width="110" height="60" as="geometry" />
        </mxCell>
        <mxCell id="Sy8Tec7hPN1Ey56XSWz9-7" value="平台" style="rounded=0;whiteSpace=wrap;html=1;" vertex="1" parent="1">
          <mxGeometry x="50" y="170" width="280" height="60" as="geometry" />
        </mxCell>
        <mxCell id="Sy8Tec7hPN1Ey56XSWz9-8" value="数据发布" style="rounded=0;whiteSpace=wrap;html=1;" vertex="1" parent="1">
          <mxGeometry x="350" y="170" width="170" height="60" as="geometry" />
        </mxCell>
        <mxCell id="Sy8Tec7hPN1Ey56XSWz9-9" value="干预机制" style="rounded=0;whiteSpace=wrap;html=1;" vertex="1" parent="1">
          <mxGeometry x="540" y="170" width="130" height="60" as="geometry" />
        </mxCell>
        <mxCell id="Sy8Tec7hPN1Ey56XSWz9-10" value="监控" style="rounded=0;whiteSpace=wrap;html=1;" vertex="1" parent="1">
          <mxGeometry x="710" y="170" width="60" height="250" as="geometry" />
        </mxCell>
        <mxCell id="Sy8Tec7hPN1Ey56XSWz9-11" value="标签" style="rounded=0;whiteSpace=wrap;html=1;" vertex="1" parent="1">
          <mxGeometry x="50" y="100" width="80" height="30" as="geometry" />
        </mxCell>
        <mxCell id="Sy8Tec7hPN1Ey56XSWz9-12" value="榜单" style="rounded=0;whiteSpace=wrap;html=1;" vertex="1" parent="1">
          <mxGeometry x="160" y="100" width="80" height="30" as="geometry" />
        </mxCell>
        <mxCell id="Sy8Tec7hPN1Ey56XSWz9-13" value="推荐理由" style="rounded=0;whiteSpace=wrap;html=1;" vertex="1" parent="1">
          <mxGeometry x="270" y="100" width="80" height="30" as="geometry" />
        </mxCell>
        <mxCell id="Sy8Tec7hPN1Ey56XSWz9-14" value="回头客" style="rounded=0;whiteSpace=wrap;html=1;" vertex="1" parent="1">
          <mxGeometry x="380" y="100" width="80" height="30" as="geometry" />
        </mxCell>
        <mxCell id="Sy8Tec7hPN1Ey56XSWz9-15" value="..." style="rounded=0;whiteSpace=wrap;html=1;" vertex="1" parent="1">
          <mxGeometry x="490" y="100" width="280" height="30" as="geometry" />
        </mxCell>
        <mxCell id="Sy8Tec7hPN1Ey56XSWz9-16" value="产品" style="text;html=1;align=center;verticalAlign=middle;resizable=0;points=[];autosize=1;strokeColor=none;" vertex="1" parent="1">
          <mxGeometry x="-20" y="105" width="40" height="20" as="geometry" />
        </mxCell>
        <mxCell id="Sy8Tec7hPN1Ey56XSWz9-17" value="业务应用" style="text;html=1;align=center;verticalAlign=middle;resizable=0;points=[];autosize=1;strokeColor=none;" vertex="1" parent="1">
          <mxGeometry x="-30" y="190" width="60" height="20" as="geometry" />
        </mxCell>
        <mxCell id="Sy8Tec7hPN1Ey56XSWz9-18" value="业务服务" style="text;html=1;align=center;verticalAlign=middle;resizable=0;points=[];autosize=1;strokeColor=none;" vertex="1" parent="1">
          <mxGeometry x="-30" y="290" width="60" height="20" as="geometry" />
        </mxCell>
        <mxCell id="Sy8Tec7hPN1Ey56XSWz9-19" value="基础服务" style="text;html=1;align=center;verticalAlign=middle;resizable=0;points=[];autosize=1;strokeColor=none;" vertex="1" parent="1">
          <mxGeometry x="-30" y="380" width="60" height="20" as="geometry" />
        </mxCell>
      </root>
    </mxGraphModel>
  </diagram>
</mxfile>
